<?xml version="1.0" encoding="UTF-8" standalone="no"?>
<!-- Generator: Assembly 2.2 - http://assemblyapp.co -->

<svg
   version="1.1"
   width="158.81149"
   height="193.00175"
   viewBox="0 0 158.81149 193.00175"
   id="svg117"
   sodipodi:docname="Pathway.svg"
   xmlns:inkscape="http://www.inkscape.org/namespaces/inkscape"
   xmlns:sodipodi="http://sodipodi.sourceforge.net/DTD/sodipodi-0.dtd"
   xmlns="http://www.w3.org/2000/svg"
   xmlns:svg="http://www.w3.org/2000/svg">
  <defs
     id="defs121" />
  <sodipodi:namedview
     id="namedview119"
     pagecolor="#ffffff"
     bordercolor="#666666"
     borderopacity="1.0"
     inkscape:showpageshadow="2"
     inkscape:pageopacity="0.0"
     inkscape:pagecheckerboard="0"
     inkscape:deskcolor="#d1d1d1"
     showgrid="false" />
  <g
     id="document"
     transform="translate(395.72303,479.98834)">
    <path
       d="m -319.45071,-479.98315 c -36.67424,0.45392 -66.29821,30.35827 -66.29821,67.13961 v 83.48667 c -6.03068,4.20244 -9.97411,11.18887 -9.97411,19.1031 0,12.85814 10.40885,23.26719 23.26699,23.26719 12.85795,0 23.267,-10.40905 23.267,-23.26719 0,-7.79441 -3.82501,-14.68898 -9.70192,-18.91039 v -83.67938 c 0,-22.29207 17.99477,-40.28684 40.28676,-40.28684 v 0 h 14.54803 c 22.2921,0 40.28688,17.99477 40.28688,40.28664 0,22.29213 -17.99478,40.2869 -40.28688,40.2869 h -1.19334 c -4.23565,-5.73856 -11.04665,-9.45792 -18.73279,-9.45792 -12.85809,0 -23.26708,10.40892 -23.26708,23.26697 0,12.85814 10.40899,23.26699 23.26708,23.26699 8.02054,0 15.08811,-4.04987 19.27086,-10.21814 v 0 h 0.65527 c 37.06395,0 67.14464,-30.08084 67.14464,-67.1448 0,-37.06372 -30.08069,-67.1446 -67.14464,-67.1446 h -15.39454 z"
       fill="#000000"
       fill-opacity="1"
       id="path114"
       style="fill:#aa0000;stroke-width:0.199698"
       inkscape:export-filename="path114.svg"
       inkscape:export-xdpi="96"
       inkscape:export-ydpi="96" />
    <text
       xml:space="preserve"
       style="font-style:normal;font-weight:normal;font-size:96px;line-height:1.25;font-family:sans-serif;fill:#000000;fill-opacity:1;stroke:none"
       x="-299.26355"
       y="-293.91873"
       id="text292"><tspan
         sodipodi:role="line"
         id="tspan290"
         x="-299.26355"
         y="-293.91873"
         style="font-style:normal;font-variant:normal;font-weight:normal;font-stretch:normal;font-size:96px;font-family:sans-serif;-inkscape-font-specification:sans-serif" /></text>
  </g>
</svg>
